<svg width="36" height="36" viewBox="0 0 36 36" fill="none" xmlns="http://www.w3.org/2000/svg">
<g id="Notification">
<path id="Vector" d="M31.5 28.5V30H4.5V28.5L7.5 25.5V16.5C7.5 11.85 10.545 7.755 15 6.435V6C15 5.20435 15.3161 4.44129 15.8787 3.87868C16.4413 3.31607 17.2044 3 18 3C18.7956 3 19.5587 3.31607 20.1213 3.87868C20.6839 4.44129 21 5.20435 21 6V6.435C25.455 7.755 28.5 11.85 28.5 16.5V25.5L31.5 28.5ZM21 31.5C21 32.2957 20.6839 33.0587 20.1213 33.6213C19.5587 34.1839 18.7956 34.5 18 34.5C17.2044 34.5 16.4413 34.1839 15.8787 33.6213C15.3161 33.0587 15 32.2957 15 31.5" fill="#402E32"/>
<circle id="Ellipse 4" cx="4" cy="4" r="4.375" transform="matrix(1 0 0 -1 24 12)" fill="#FB8500" stroke="#FFF7F1" stroke-width="0.75"/>
</g>
</svg>
